<?xml version="1.0" encoding="utf-8"?>
<!-- Generator: Adobe Illustrator 20.1.0, SVG Export Plug-In . SVG Version: 6.00 Build 0)  -->
<svg version="1.1"
	 id="Layer_1" xmlns:cc="http://creativecommons.org/ns#" xmlns:dc="http://purl.org/dc/elements/1.1/" xmlns:inkscape="http://www.inkscape.org/namespaces/inkscape" xmlns:rdf="http://www.w3.org/1999/02/22-rdf-syntax-ns#" xmlns:sodipodi="http://sodipodi.sourceforge.net/DTD/sodipodi-0.dtd" xmlns:svg="http://www.w3.org/2000/svg"
	 xmlns="http://www.w3.org/2000/svg" xmlns:xlink="http://www.w3.org/1999/xlink" x="0px" y="0px" viewBox="0 0 75.7 75.7"
	 style="enable-background:new 0 0 75.7 75.7;" xml:space="preserve">
<style type="text/css">
	.st0{fill:#FFFFFF;}
	.st1{enable-background:new    ;}
</style>
<g transform="translate(0,-952.36218)">
	<path class="st0" d="M37.8,955.5c-19.1,0-34.7,15.5-34.7,34.7s15.5,34.6,34.7,34.6s34.6-15.5,34.6-34.6S57,955.5,37.8,955.5z
		 M37.8,959.8c16.8,0,30.4,13.6,30.4,30.4s-13.6,30.4-30.4,30.4S7.4,1007,7.4,990.2S21.1,959.8,37.8,959.8z M40.6,963.2l-27.5,15.9
		c-0.8,1.8-1.4,3.7-1.8,5.7l35.2-20.3C44.6,963.9,42.6,963.4,40.6,963.2z M31.7,963.8c-2.5,0.6-5,1.5-7.4,2.9s-4.4,3-6.2,4.9
		L31.7,963.8z M51,966.5l-40.3,23.2c0,1.5,0.1,3,0.3,4.4L54.7,969C53.5,968,52.3,967.2,51,966.5z M57.8,971.8l-45.8,26.5
		c0.4,1.3,0.9,2.5,1.5,3.8l46.8-27C59.5,973.9,58.7,972.8,57.8,971.8z M62.3,978.4l-46.8,27.1c0.8,1.1,1.6,2.2,2.5,3.2l45.8-26.4
		C63.3,980.9,62.9,979.7,62.3,978.4z M64.7,986.3l-43.6,25.2c1.2,0.9,2.4,1.8,3.7,2.5L65,990.7C65,989.3,64.9,987.8,64.7,986.3z
		 M64.4,995.7l-35.1,20.2c1.9,0.6,3.9,1.1,5.9,1.2l27.3-15.8C63.4,999.6,64,997.7,64.4,995.7z M57.4,1009l-13,7.5
		c2.4-0.6,4.8-1.5,7.1-2.8C53.7,1012.4,55.6,1010.8,57.4,1009z"/>
</g>
<text transform="matrix(1 0 0 1 -12.3438 103.1875)" style="font-family:'HelveticaNeue-Bold'; font-size:5px;">Created by Adam Robinson</text>
<text transform="matrix(1 0 0 1 -12.3438 108.1875)" style="font-family:'HelveticaNeue-Bold'; font-size:5px;">from the Noun Project</text>
</svg>
